<svg width="290" height="115" xmlns="http://www.w3.org/2000/svg" class="iconLeft">
 <!---->
 <defs>
  <!---->
  <linearGradient y2="0%" x2="100%" y1="0%" x1="0%" id="28589048-8b06-4ad9-83ed-f5c13b73460a" gradientTransform="rotate(25)">
   <stop stop-color="#0D2175" offset="0%"/>
   <stop stop-color="#1F1EFB" offset="100%"/>
  </linearGradient>
 </defs>
 <defs>
  <!---->
 </defs>
 <!---->
 <g>
  <title>Layer 1</title>
  <rect id="svg_1" class="logo-background-square" height="115" width="290" y="87.607" x="4.19" fill="transparent" stroke="null"/>
  <g transform="matrix(2.01361 0 0 2.01361 92.1858 130.478)" fill="#000000" id="decb5eb0-8769-4aca-b6f2-da614e8b4f6d">
   <path id="svg_2" d="m4.31801,-32.08442l0,0q-0.97,1.84 -3.23,1.84l0,0l0,0q-1.77,0 -2.71,-1.12l0,0l0,0q-0.95,-1.12 -0.95,-3.9l0,0l0,0q0,-2.79 0.95,-3.9l0,0l0,0q0.94,-1.11 2.71,-1.11l0,0l0,0q1.12,0 1.91,0.42l0,0l0,0q0.79,0.43 1.28,1.35l0,0l-1.43,0.77l0,0q-0.28,-0.6 -0.73,-0.9l0,0l0,0q-0.45,-0.3 -1.03,-0.3l0,0l0,0q-0.66,0 -1.1,0.32l0,0l0,0q-0.43,0.31 -0.68,1.11l0,0l0,0q-0.24,0.81 -0.24,2.24l0,0l0,0q0,1.44 0.24,2.25l0,0l0,0q0.25,0.8 0.68,1.11l0,0l0,0q0.44,0.32 1.1,0.32l0,0l0,0q0.61,0 1.06,-0.33l0,0l0,0q0.45,-0.33 0.73,-0.92l0,0l1.44,0.75zm8.72,1l-1.01,0.97l-0.88,-0.87l0,0q-0.92,0.74 -2.22,0.74l0,0l0,0q-1.5,0 -2.22,-0.56l0,0l0,0q-0.71,-0.56 -0.71,-1.73l0,0l0,0q0,-1.18 0.78,-1.73l0,0l0,0q0.77,-0.55 2.43,-0.55l0,0l1.42,0l0,-0.37l0,0q0,-0.56 -0.33,-0.8l0,0l0,0q-0.34,-0.25 -1.09,-0.25l0,0l0,0q-0.68,0 -1.1,0.15l0,0l0,0q-0.43,0.15 -0.7,0.45l0,0l-1,-0.98l0,0q0.43,-0.43 1.19,-0.69l0,0l0,0q0.75,-0.26 1.72,-0.26l0,0l0,0q1.34,0 2.11,0.53l0,0l0,0q0.77,0.52 0.77,1.49l0,0l0,3.62l0.84,0.84zm-5.49,-1.45l0,0q0,0.53 0.35,0.75l0,0l0,0q0.35,0.23 1.26,0.23l0,0l0,0q0.44,0 0.83,-0.16l0,0l0,0q0.39,-0.15 0.64,-0.39l0,0l0,-1.47l-0.95,0l0,0q-0.92,0 -1.37,0.1l0,0l0,0q-0.45,0.1 -0.6,0.31l0,0l0,0q-0.16,0.21 -0.16,0.63l0,0zm11.71,1.03l0,0q0.31,0 0.77,-0.07l0,0l0,0q0.46,-0.07 0.67,-0.11l0,0l0,1.29l0,0q-0.92,0.15 -1.74,0.15l0,0l0,0q-2.18,0 -2.18,-1.86l0,0l0,-8.16l-2.13,0l0,-1.33l3.7,0l0,9.07l0,0q0,0.63 0.26,0.83l0,0l0,0q0.26,0.19 0.65,0.19l0,0zm7.14,-6.06l0,0q1.5,0 2.29,0.99l0,0l0,0q0.8,0.99 0.8,2.69l0,0l0,0q0,0.3 -0.01,0.44l0,0l-4.82,0l0,0q0.07,1.01 0.51,1.43l0,0l0,0q0.44,0.43 1.2,0.43l0,0l0,0q1.05,0 1.58,-0.87l0,0l1.33,0.73l0,0q-0.46,0.74 -1.24,1.11l0,0l0,0q-0.79,0.37 -1.68,0.37l0,0l0,0q-0.93,0 -1.68,-0.39l0,0l0,0q-0.75,-0.39 -1.19,-1.22l0,0l0,0q-0.44,-0.82 -0.44,-2.05l0,0l0,0q0,-1.25 0.45,-2.07l0,0l0,0q0.45,-0.82 1.2,-1.2l0,0l0,0q0.76,-0.39 1.7,-0.39l0,0zm-1.7,2.91l3.2,0l0,0q-0.07,-0.78 -0.44,-1.18l0,0l0,0q-0.38,-0.4 -1.09,-0.4l0,0l0,0q-0.67,0 -1.11,0.37l0,0l0,0q-0.43,0.36 -0.56,1.21l0,0zm10.42,-2.89l0,0q1.25,0 1.9,0.77l0,0l0,0q0.66,0.77 0.66,2.43l0,0l0,3.95l-1.57,0l0,-3.67l0,0q0,-0.8 -0.09,-1.24l0,0l0,0q-0.09,-0.45 -0.36,-0.68l0,0l0,0q-0.27,-0.22 -0.82,-0.22l0,0l0,0q-0.66,0 -1.09,0.35l0,0l0,0q-0.44,0.35 -0.66,0.8l0,0l0,4.66l-1.57,0l0,-4.83l0,-2.17l1.16,0l0,0q0.03,0.07 0.1,0.31l0,0l0,0q0.06,0.24 0.16,0.53l0,0l0,0q0.36,-0.48 0.91,-0.74l0,0l0,0q0.56,-0.25 1.27,-0.25l0,0zm9.03,-4.05l1.57,0l0,11.2l-1.23,0l-0.27,-0.8l0,0q-0.74,0.95 -1.93,0.95l0,0l0,0q-1.42,0 -2.19,-0.9l0,0l0,0q-0.78,-0.9 -0.78,-2.76l0,0l0,0q0,-1.88 0.71,-2.76l0,0l0,0q0.72,-0.88 2.12,-0.88l0,0l0,0q0.61,0 1.13,0.23l0,0l0,0q0.51,0.23 0.87,0.63l0,0l0,-4.91zm-1.55,10.01l0,0q0.57,0 0.98,-0.34l0,0l0,0q0.4,-0.33 0.57,-0.82l0,0l0,-2.23l0,0q-0.22,-0.5 -0.65,-0.87l0,0l0,0q-0.43,-0.36 -1.04,-0.36l0,0l0,0q-0.89,0 -1.23,0.52l0,0l0,0q-0.34,0.53 -0.34,1.78l0,0l0,0q0,1.21 0.4,1.77l0,0l0,0q0.41,0.55 1.31,0.55l0,0zm10.99,-4.59l0,0q-0.68,0 -1.15,0.31l0,0l0,0q-0.48,0.3 -0.69,0.7l0,0l0,3.44l2.21,0l0,1.33l-5.5,0l0,-1.33l1.71,0l0,-4.34l-1.71,0l0,-1.33l2.87,0l0.27,0.85l0,0q0.38,-0.49 0.95,-0.75l0,0l0,0q0.57,-0.27 1.32,-0.27l0,0l0,0q0.67,0 1.2,0.27l0,0l-0.46,1.34l0,0q-0.07,-0.07 -0.35,-0.15l0,0l0,0q-0.27,-0.07 -0.67,-0.07l0,0zm6.13,-2.76l0,0q-0.53,0 -0.89,-0.36l0,0l0,0q-0.36,-0.35 -0.36,-0.87l0,0l0,0q0,-0.52 0.36,-0.88l0,0l0,0q0.36,-0.35 0.89,-0.35l0,0l0,0q0.53,0 0.88,0.35l0,0l0,0q0.35,0.35 0.35,0.88l0,0l0,0q0,0.52 -0.35,0.87l0,0l0,0q-0.35,0.36 -0.88,0.36l0,0zm0.81,7.21l1.9,0l0,1.33l-3.47,0l0,-5.67l-2.34,0l0,-1.33l3.91,0l0,5.67zm8.11,-6.97l0,1.3l2.43,0l0,1.33l-2.43,0l0,5.67l-1.59,0l0,-5.67l-1.55,0l0,-1.33l1.55,0l0,-1.68l0,0q0,-1.26 0.82,-1.94l0,0l0,0q0.81,-0.68 2.14,-0.68l0,0l0,0q0.85,0 1.5,0.24l0,0l-0.48,1.23l0,0q-0.34,-0.12 -0.92,-0.12l0,0l0,0q-0.82,0 -1.15,0.37l0,0l0,0q-0.32,0.37 -0.32,1.28l0,0zm9.54,1.3l1.78,0l-2.41,7l0,0q-0.49,1.3 -1.2,2l0,0l0,0q-0.71,0.69 -1.74,0.69l0,0l0,0q-0.3,0 -0.6,-0.06l0,0l0,0q-0.29,-0.07 -0.4,-0.11l0,0l0.49,-1.25l0,0q0.01,0 0.14,0.04l0,0l0,0q0.12,0.03 0.25,0.03l0,0l0,0q0.53,0 0.87,-0.3l0,0l0,0q0.33,-0.3 0.68,-1.1l0,0l-2.53,-6.94l1.78,0l1.45,4.94l1.44,-4.94z"/>
  </g>
  <g transform="matrix(0.425908 0 0 0.425908 38.899 128.705)" fill="url(#28589048-8b06-4ad9-83ed-f5c13b73460a)" id="5177e68e-8ba6-494d-b55c-0c71748ef85f">
   <path id="svg_3" d="m70.96155,-206.27483l-0.781,0l0,-7.578c0,-4.071 -3.311,-7.382 -7.38,-7.382c-4.07,0 -7.381,3.311 -7.381,7.382l0,7.578l-11.139,0l0,-7.578c0,-4.071 -3.312,-7.382 -7.38,-7.382c-4.071,0 -7.382,3.311 -7.382,7.382l0,7.578l-11.139,0l0,-7.578c0,-4.071 -3.311,-7.382 -7.379,-7.382c-4.071,0 -7.381,3.311 -7.381,7.382l0,7.578l-0.858,0c-7.62,0 -13.818,6.198 -13.818,13.817l0,56.619c0,7.619 6.198,13.817 13.818,13.817l68.2,0c7.62,0 13.817,-6.198 13.817,-13.817l0,-56.619c0,-7.619 -6.197,-13.817 -13.817,-13.817zm-11.398,-7.578a3.241,3.241 0 0 1 3.236,-3.238a3.24,3.24 0 0 1 3.236,3.238l0,17.374a3.238,3.238 0 0 1 -3.236,3.235a3.239,3.239 0 0 1 -3.236,-3.235l0,-17.374zm-25.901,0a3.242,3.242 0 0 1 3.238,-3.238a3.24,3.24 0 0 1 3.235,3.238l0,17.374a3.237,3.237 0 0 1 -6.473,0l0,-17.374zm-25.899,0c0,-1.785 1.453,-3.238 3.237,-3.238s3.235,1.453 3.235,3.238l0,17.374a3.237,3.237 0 0 1 -6.472,0l0,-17.374zm-5.002,11.722l0.858,0l0,5.651c0,4.069 3.311,7.379 7.381,7.379c4.069,0 7.379,-3.31 7.379,-7.379l0,-5.651l11.139,0l0,5.651c0,4.069 3.311,7.379 7.382,7.379c4.068,0 7.38,-3.31 7.38,-7.379l0,-5.651l11.139,0l0,5.651c0,4.069 3.311,7.379 7.381,7.379c4.069,0 7.38,-3.31 7.38,-7.379l0,-5.651l0.781,0c5.334,0 9.675,4.34 9.675,9.673l0,12.092l-87.549,0l0,-12.092c0,-5.333 4.34,-9.673 9.674,-9.673zm68.2,75.965l-68.2,0c-5.334,0 -9.674,-4.339 -9.674,-9.673l0,-40.382l87.548,0l0,40.382c0,5.334 -4.34,9.673 -9.674,9.673z"/>
   <path id="svg_4" d="m3.67955,-135.49083l67.051,0l0,-33.521l-67.051,0l0,33.521zm4.145,-14.368l8.793,0l0,10.225l-8.793,0l0,-10.225zm37.802,0l8.287,0l0,10.225l-8.287,0l0,-10.225zm-4.145,10.224l-8.288,0l0,-10.224l8.288,0l0,10.224zm4.145,-14.369l0,-10.864l8.287,0l0,10.864l-8.287,0zm-4.145,0l-8.288,0l0,-10.864l8.288,0l0,10.864zm-12.432,0l-8.288,0l0,-10.864l8.288,0l0,10.864zm0,4.145l0,10.225l-8.288,0l0,-10.225l8.288,0zm29.008,10.224l0,-10.224l8.529,0l0,10.225l-8.529,0l0,-0.001zm8.53,-14.369l-8.529,0l0,-10.864l8.529,0l0,10.864zm-49.97,-10.864l0,10.864l-8.793,0l0,-10.864l8.793,0z"/>
  </g>
 </g>
</svg>